<svg width="23" height="23" viewBox="0 0 23 23" fill="none" xmlns="http://www.w3.org/2000/svg">
<g clip-path="url(#clip0_1_144)">
<path d="M20.5254 10.5735L11.7301 19.3688C10.6526 20.4463 9.19121 21.0516 7.6674 21.0516C6.14359 21.0516 4.6822 20.4463 3.6047 19.3688C2.52721 18.2913 1.92188 16.8299 1.92188 15.3061C1.92188 13.7823 2.52721 12.3209 3.6047 11.2434L12.4 2.44806C13.1184 1.72973 14.0926 1.32617 15.1085 1.32617C16.1244 1.32617 17.0986 1.72973 17.817 2.44806C18.5353 3.16639 18.9389 4.14065 18.9389 5.15652C18.9389 6.17239 18.5353 7.14666 17.817 7.86499L9.01206 16.6603C8.6529 17.0195 8.16577 17.2213 7.65783 17.2213C7.1499 17.2213 6.66276 17.0195 6.3036 16.6603C5.94443 16.3012 5.74266 15.814 5.74266 15.3061C5.74266 14.7982 5.94443 14.311 6.3036 13.9519L14.429 5.83603" stroke="#272B37" stroke-width="1.91411" stroke-linecap="round" stroke-linejoin="round"/>
</g>
<defs>
<clipPath id="clip0_1_144">
<rect width="22.9693" height="22.9693" fill="white"/>
</clipPath>
</defs>
</svg>
